<?xml version="1.0" standalone="no"?>
<!DOCTYPE svg PUBLIC "-//W3C//DTD SVG 20010904//EN"
 "http://www.w3.org/TR/2001/REC-SVG-20010904/DTD/svg10.dtd">
<svg version="1.0" xmlns="http://www.w3.org/2000/svg"
 width="148.000000pt" height="148.000000pt" viewBox="0 0 148.000000 148.000000"
 preserveAspectRatio="xMidYMid meet">
<metadata>
Created by potrace 1.11, written by Peter Selinger 2001-2013
</metadata>
<g transform="translate(0.000000,148.000000) scale(0.100000,-0.100000)"
fill="#000000" stroke="none">
<path d="M685 1384 c-74 -54 -245 -217 -245 -231 0 -12 266 -283 277 -283 5 0
26 17 45 38 120 126 198 194 234 202 33 8 40 6 67 -21 25 -26 29 -35 24 -66
-4 -22 -20 -50 -41 -72 -19 -20 -61 -65 -93 -100 -91 -102 -194 -201 -207
-201 -7 0 -101 88 -208 195 -108 107 -200 195 -206 195 -13 0 -77 -67 -77 -80
0 -6 78 -88 173 -183 94 -95 172 -171 172 -169 0 2 28 -26 63 -62 35 -36 68
-66 73 -66 6 0 54 44 106 97 319 323 359 355 412 320 35 -23 52 -81 33 -110
-18 -26 -224 -235 -401 -405 l-128 -124 -96 95 c-54 52 -190 188 -304 301
-115 113 -211 206 -214 206 -13 0 -64 -63 -64 -80 0 -23 18 -41 373 -397 l301
-303 72 68 c39 37 72 73 73 80 0 6 5 12 10 12 5 0 117 107 248 238 209 208
241 245 251 283 15 53 9 116 -14 165 -20 42 -109 104 -149 104 -14 0 -27 6
-29 13 -28 100 -45 126 -107 165 -32 19 -60 27 -120 31 -8 0 -23 19 -33 41
-23 51 -87 106 -134 114 -62 10 -116 6 -137 -10z m139 -129 c13 -13 23 -32 21
-42 -2 -10 -4 -25 -4 -33 -1 -21 -104 -130 -122 -130 -23 0 -119 99 -112 115
3 8 9 15 13 15 4 0 30 23 58 50 61 60 104 67 146 25z"/>
</g>
</svg>
